# xmcd
#
# Track frame offsets: 
#        150
#        9477
#        28740
#        36852
#        48642
#        66427
#        79717
#        89995
#        101880
#        113365
#        129145
#        143222
#        157560
#        175180
#        189420
#        213217
#        236675
#
# Disc length: 3337 seconds
#
# Revision: 0
# Processed by: cddbd v1.5.2PL0 Copyright (c) Steve Scherf et al.
# Submitted via: ExactAudioCopyFreeDBPlugin 1.0
#
DISCID=de0d0711
DTITLE=Pixie Jenkins and His White Rose Orchestra - The Last Anzac
DYEAR=1998
DGENRE=Australiana
TTITLE0=To the Fallen (The Ode of Remembrance)
TTITLE1=The Gift of Years
TTITLE2=Along the Castlereagh
TTITLE3=The Naked Army
TTITLE4=Suvla Bay
TTITLE5=Rusty, It's Goodbye
TTITLE6=Tender Comrade
TTITLE7=Daddy's in the Dardenelles
TTITLE8=Pack Up Your Troubles
TTITLE9=The Wake
TTITLE10=The Boy Soldier
TTITLE11=White Crosses in the Jungle
TTITLE12=A Nightingale Sang in Berkley Square
TTITLE13=Road to Gundagai-Dog on Tuckerbox-Yarrawonga
TTITLE14=No Man's Land
TTITLE15=The Band Played Waltzing Matilda
TTITLE16=We'll Meet Again
EXTD=
EXTT0=
EXTT1=
EXTT2=
EXTT3=
EXTT4=
EXTT5=
EXTT6=
EXTT7=
EXTT8=
EXTT9=
EXTT10=
EXTT11=
EXTT12=
EXTT13=
EXTT14=
EXTT15=
EXTT16=
PLAYORDER=
